<svg width="173" height="36" viewBox="0 0 173 36" fill="none" xmlns="http://www.w3.org/2000/svg">
<path d="M124.285 9.08848H119.537V26.51H123.211V22.267H124.285C129.055 22.267 131.902 19.8094 131.902 15.6906C131.902 11.5589 129.055 9.08848 124.285 9.08848ZM124.187 19.0173H123.211V12.3424H124.187C126.88 12.3424 128.13 13.4043 128.13 15.6906C128.13 17.9598 126.88 19.0173 124.187 19.0173Z" fill="#007377"/>
<path d="M134.46 9.10321H138.047V26.5282H134.46V9.10321Z" fill="#007377"/>
<path d="M141.006 17.8223C141.006 12.6718 145.003 8.87925 150.026 8.87925C155.048 8.87925 159.046 12.6718 159.046 17.8223C159.046 22.973 155.048 26.7656 150.026 26.7656C145.003 26.7656 141.006 22.973 141.006 17.8223ZM155.356 17.8223C155.356 14.568 153.203 12.0823 150.026 12.0823C146.848 12.0823 144.696 14.568 144.696 17.8223C144.696 21.0768 146.848 23.5623 150.026 23.5623C153.203 23.5623 155.356 21.0768 155.356 17.8223Z" fill="#007377"/>
<path d="M166.868 26.7655C166.432 26.7655 166.047 26.7526 165.693 26.7223C163.421 26.5323 162.056 25.7029 160.856 23.7636C161.542 23.2927 162.294 22.7744 163.071 22.2388L163.607 21.8673C164.104 22.7615 164.816 23.3791 165.676 23.6556C166 23.7592 166.346 23.8111 166.704 23.8111C167.581 23.8111 169.062 23.3878 169.062 21.8069C169.062 21.4138 168.993 21.1201 168.846 20.8739C168.553 20.3728 167.909 20.0403 166.752 19.5738C166.553 19.4917 166.333 19.4053 166.095 19.3146L165.745 19.1764C164.674 18.7617 163.806 18.3773 163.071 17.8676C162.385 17.3968 161.884 16.8655 161.542 16.2522C161.149 15.5351 160.955 14.7015 160.955 13.6994C160.955 10.7881 163.119 8.9049 166.471 8.9049C166.916 8.9049 167.335 8.93513 167.715 8.99993C169.442 9.26773 170.786 10.1273 171.93 11.6952L170.907 12.4036C170.375 12.7707 169.827 13.1508 169.274 13.5353C168.864 12.8701 168.242 12.3302 167.559 12.0537C167.179 11.8982 166.782 11.8161 166.38 11.8161C164.406 11.8161 164.307 13.2502 164.307 13.5396C164.307 13.7901 164.354 14.0233 164.445 14.2264C164.756 14.9477 165.572 15.3321 166.402 15.6345C166.441 15.6518 166.484 15.6647 166.523 15.6777L168.695 16.4724C169.231 16.6668 169.762 16.9303 170.237 17.2413C170.803 17.6041 171.27 18.0231 171.585 18.4593C171.615 18.4982 171.697 18.6148 171.814 18.8135C172.082 19.2627 172.531 20.2044 172.531 21.4354C172.531 22.1826 172.531 24.4633 170.129 25.9103C169.162 26.4977 167.758 26.7655 166.868 26.7655Z" fill="#007377"/>
<path d="M78.545 16.978L84.2823 9.09268L88.7617 9.09153L82.5882 17.5466L89.1944 26.5164L84.8629 26.5175L80.3338 20.1921L78.545 22.4602V26.5191L74.9575 26.5201V9.09508L78.545 9.09416V16.978Z" fill="#007377"/>
<path d="M52.5366 9.8483L59.3795 26.535H55.4922L54.6724 24.5619H47.5998L46.7798 26.535H42.8921L49.7353 9.84827C50.249 8.59566 52.023 8.59568 52.5366 9.8483ZM53.4678 21.5638L51.136 15.4137L48.8042 21.5638H53.4678Z" fill="#007377"/>
<path d="M66.5228 26.7655C66.0865 26.7655 65.7021 26.7526 65.3479 26.7223C63.076 26.5323 61.7111 25.7029 60.5103 23.7636C61.197 23.2927 61.9486 22.7744 62.7261 22.2388L63.2617 21.8673C63.7584 22.7615 64.4711 23.3791 65.3307 23.6556C65.6546 23.7592 66.0002 23.8111 66.3587 23.8111C67.2355 23.8111 68.7171 23.3878 68.7171 21.8069C68.7171 21.4138 68.648 21.1201 68.5011 20.8739C68.2074 20.3728 67.5638 20.0403 66.4062 19.5738C66.2075 19.4917 65.3998 19.1764 65.3998 19.1764C64.3286 18.7617 63.4604 18.3773 62.7261 17.8676C62.0393 17.3968 61.5383 16.8655 61.197 16.2522C60.804 15.5351 60.6096 14.7015 60.6096 13.6994C60.6096 10.7881 62.7736 8.9049 66.1254 8.9049C66.5703 8.9049 66.9893 8.93513 67.3694 8.99994C69.0972 9.26774 70.4405 10.1273 71.5851 11.6952L70.5614 12.4036C70.0301 12.7707 69.4816 13.1508 68.9287 13.5353C68.5184 12.8701 67.8964 12.3302 67.2139 12.0537C66.8338 11.8982 66.4364 11.8162 66.0347 11.8162C64.0608 11.8162 63.9614 13.2502 63.9614 13.5396C63.9614 13.7901 64.0089 14.0233 64.0996 14.2264C64.4107 14.9477 65.227 15.3321 66.0563 15.6345C66.0952 15.6518 66.1384 15.6647 66.1773 15.6777L68.3499 16.4724C68.8855 16.6668 69.4168 16.9303 69.8919 17.2413C70.4578 17.6041 70.9242 18.0231 71.2396 18.4593C71.2698 18.4982 71.3519 18.6148 71.4685 18.8135C71.7363 19.2627 72.1855 20.2044 72.1855 21.4354C72.1855 22.1826 72.1855 24.4633 69.7839 25.9103C68.8164 26.4977 67.4126 26.7655 66.5228 26.7655Z" fill="#007377"/>
<path d="M91.4833 9.11314H95.0707V23.3863H102.107V26.5381H91.4833V9.11314Z" fill="#007377"/>
<path d="M105.031 9.09753H116.001V12.2131H108.578V16.4859H114.265V19.5254H108.578V23.4342H116.356V26.5497H105.031V9.09753Z" fill="#007377"/>
<path d="M17.8663 35.7326C27.7336 35.7326 35.7326 27.7336 35.7326 17.8663C35.7326 7.99901 27.7336 0 17.8663 0C7.99901 0 0 7.99901 0 17.8663C0 27.7336 7.99901 35.7326 17.8663 35.7326Z" fill="#007377"/>
<path d="M16.8607 27.0535V33.1554C16.8607 33.7137 17.3128 34.1658 17.8711 34.1658C18.4273 34.1658 18.8793 33.7137 18.8793 33.1554V28.4471L16.8607 27.0535Z" fill="white"/>
<path d="M12.244 21.0167C12.244 22.1062 13.2856 23.027 13.7314 23.3728C13.7335 23.3728 13.7418 23.3832 20.0976 27.7725V31.0869C20.5479 30.9622 23.4703 29.9708 23.4703 27.9933C23.4703 26.8267 22.26 25.8393 21.8892 25.5664C21.8537 25.5393 16.7604 22.0229 15.6167 21.2334V17.9232C15.3922 17.9752 12.244 18.9744 12.244 21.0167Z" fill="white"/>
<path d="M16.8607 16.5205V20.5577L18.8793 21.9493V17.9121L16.8607 16.5205Z" fill="white"/>
<path d="M12.244 10.474C12.244 11.5635 13.2856 12.4842 13.7314 12.83C13.7335 12.83 13.7418 12.8405 20.0976 17.2297V20.5441C20.5479 20.4195 23.4703 19.4281 23.4703 17.4505C23.4703 16.284 22.26 15.2965 21.8892 15.0236C21.8537 14.9966 16.7604 11.4801 15.6167 10.6906V7.38044C15.3922 7.43246 12.244 8.43166 12.244 10.474Z" fill="white"/>
<path d="M20.1179 9.71624C21.9706 9.31501 22.9527 8.8121 23.0886 8.19967C23.2006 7.69478 22.8479 7.29238 22.2041 6.76404C21.7471 6.38901 21.5067 5.96526 20.1179 6.25815V9.71624Z" fill="white"/>
<path d="M16.1495 3.33375C16.1495 2.38314 16.9202 1.61251 17.8708 1.61251C18.8214 1.61251 19.592 2.38314 19.592 3.33375C19.592 3.90684 19.3108 4.41309 18.8801 4.72593V11.4103L16.8615 10.0167V4.72594C16.4307 4.41309 16.1495 3.90684 16.1495 3.33375Z" fill="white"/>
</svg>
