<?xml version="1.0" encoding="UTF-8"?>
<svg width="263px" height="62px" viewBox="0 0 263 62" version="1.1" xmlns="http://www.w3.org/2000/svg" xmlns:xlink="http://www.w3.org/1999/xlink">
    <!-- Generator: Sketch 46.2 (44496) - http://www.bohemiancoding.com/sketch -->
    <title>logo_</title>
    <desc>Created with Sketch.</desc>
    <defs></defs>
    <g id="99_Logos+Farben" stroke="none" stroke-width="1" fill="none" fill-rule="evenodd">
        <g id="logo_" fill="#003F8A">
            <path d="M45.0863729,22.5192654 C45.0863729,22.5192654 37.3666003,26.89235 36.7607422,27.458105 C36.1459405,28.0236054 35.6198073,28.7524952 36.0271197,29.3566798 C36.4313659,29.9634093 38.4615401,33.6831908 38.4615401,33.6831908 C38.4615401,33.6831908 39.3579342,34.8157186 38.1342081,34.8554207 C36.9184033,34.8951228 32.7780744,35.3822371 31.7240192,35.7054529 C30.669964,36.0294322 29.1268272,36.5554851 29.1656675,37.4431833 C29.2096184,38.3321541 29.9802925,39.4244709 29.0849205,39.6273079 C28.1954256,39.8281089 25.6751477,40.3541617 24.6210925,40.3958998 C23.564993,40.4356019 22.6757537,40.5956828 23.4042656,41.4057584 C24.1320109,42.2140524 27.8282311,44.2352966 29.4472599,45.3265953 C31.0711438,46.4212026 32.4525311,48.4404108 32.7780744,48.9662091 C33.1054065,49.4942979 34.0776925,50.6652554 32.8220253,50.9077945 C31.5622696,51.1493156 30.0991132,51.2717304 29.4472599,51.1493156 C28.7994951,51.0281733 28.3162906,50.8663109 27.9498627,51.3511346 C27.5826682,51.8374854 25.8399636,52.8890821 23.6848359,50.4624184 C21.536863,48.0367727 17.1100867,42.1346482 13.8610413,39.869847 C10.616851,37.6053002 5.09717913,35.0175377 3.59390476,32.7944745 C2.09063038,30.5709024 0.711287338,28.670037 2.82144199,24.3453075 C4.93236323,20.0187966 4.68884453,19.7762574 3.83946768,17.3506118 C2.98395814,14.9249661 2.25135783,14.2785345 1.68740635,13.9555732 C1.1165556,13.6305758 0.673213586,13.3521521 1.31918973,13.2676579 C2.07862054,13.1681482 2.65662608,13.2269378 4.60809752,11.8528888 C6.55343626,10.4770583 9.06681495,9.54075045 11.5063459,10.2345192 C11.5063459,10.2345192 14.1564323,10.7931481 13.8229676,13.2259198 C13.4667608,15.8157184 13.0494827,18.4431831 14.229258,18.8865232 C15.4041782,19.3318993 17.1537821,18.8865232 20.5206261,17.9171302 C23.8923251,16.9459558 30.4264453,15.6933036 34.9720424,16.9052357 C39.5155953,18.1189492 43.7407597,20.0994733 44.2280526,20.3420124 C44.7120236,20.5835335 46.8081242,21.4992268 45.0863729,22.5192654 Z M72.7649685,16.2323359 C72.7649685,16.1318082 72.832428,16.0643655 72.9333618,16.0643655 L74.0970387,16.0643655 C74.1984836,16.0643655 74.2656876,16.1318082 74.2656876,16.2323359 L74.2656876,20.9184563 C74.2656876,20.9856445 74.2994173,21.0192386 74.3671324,21.0192386 L79.3417619,21.0192386 C79.4089659,21.0192386 79.4429512,20.9856445 79.4429512,20.9184563 L79.4429512,16.2323359 C79.4429512,16.1318082 79.5104108,16.0643655 79.6113445,16.0643655 L80.7750215,16.0643655 C80.8762108,16.0643655 80.9436703,16.1318082 80.9436703,16.2323359 L80.9436703,27.3176206 C80.9436703,27.4184029 80.8762108,27.485591 80.7750215,27.485591 L79.6113445,27.485591 C79.5104108,27.485591 79.4429512,27.4184029 79.4429512,27.3176206 L79.4429512,22.5141754 C79.4429512,22.4467327 79.4089659,22.4133931 79.3417619,22.4133931 L74.3671324,22.4133931 C74.2994173,22.4133931 74.2656876,22.4467327 74.2656876,22.5141754 L74.2656876,27.3176206 C74.2656876,27.4184029 74.1984836,27.485591 74.0970387,27.485591 L72.9333618,27.485591 C72.832428,27.485591 72.7649685,27.4184029 72.7649685,27.3176206 L72.7649685,16.2323359 Z M89.6462057,24.5799571 C89.2920431,25.6715104 88.4825287,26.276204 87.2007976,26.276204 C85.9361869,26.276204 85.1266725,25.6715104 84.7725099,24.5799571 C84.6375908,24.1600311 84.5195367,23.4209612 84.5195367,21.7751055 C84.5195367,20.1289953 84.6375908,19.3899255 84.7725099,18.9702539 C85.1266725,17.8784461 85.9361869,17.2737526 87.2007976,17.2737526 C88.4825287,17.2737526 89.2920431,17.8784461 89.6462057,18.9702539 C89.7811248,19.3899255 89.8991789,20.1289953 89.8991789,21.7751055 C89.8991789,23.4209612 89.7811248,24.1600311 89.6462057,24.5799571 Z M83.3055206,24.9996287 C83.0862771,24.3447985 83.0019527,23.6561198 83.0019527,21.7751055 C83.0019527,19.8938367 83.0862771,19.205158 83.3055206,18.5503278 C83.8957915,16.7866383 85.2784564,15.879598 87.2007976,15.879598 C89.1402592,15.879598 90.5229241,16.7866383 91.113195,18.5503278 C91.3324385,19.205158 91.4167629,19.8938367 91.4167629,21.7751055 C91.4167629,23.6561198 91.3324385,24.3447985 91.113195,24.9996287 C90.5229241,26.7635727 89.1402592,27.6703585 87.2007976,27.6703585 C85.2784564,27.6703585 83.8957915,26.7635727 83.3055206,24.9996287 Z M92.8272804,26.2426099 C92.7598209,26.1754217 92.742956,26.0746394 92.8104155,25.9906542 L93.5524704,25.117208 C93.6196744,25.0332228 93.7042544,25.0332228 93.7885788,25.100411 C94.5306337,25.688562 95.6771902,26.276204 96.9926511,26.276204 C98.5776946,26.276204 99.5221281,25.4869974 99.5221281,24.3280015 C99.5221281,23.353773 98.9655869,22.6986884 97.1275702,22.4637843 L96.5541641,22.3797991 C94.3282551,22.0771978 93.181443,21.0192386 93.181443,19.221955 C93.181443,17.1897674 94.6486878,15.879598 96.9251916,15.879598 C98.2741267,15.879598 99.5724672,16.3165757 100.415711,16.9378117 C100.500036,17.0049999 100.517156,17.0889851 100.449441,17.1729703 L99.8762906,18.0965532 C99.8085756,18.1807929 99.7245067,18.1807929 99.6401823,18.1304018 C98.7126137,17.5593023 97.8525046,17.2737526 96.8745969,17.2737526 C95.4748116,17.2737526 94.699027,18.0296195 94.699027,19.1211728 C94.699027,20.0786042 95.3398925,20.7168918 97.1107053,20.9520504 L97.6669909,21.0360356 C99.9100204,21.3383824 101.039968,22.3627475 101.039968,24.2269647 C101.039968,26.2258128 99.6233174,27.6703585 96.8574765,27.6703585 C95.2387032,27.6703585 93.6705246,27.0150193 92.8272804,26.2426099 Z M109.278208,19.4741652 C109.278208,20.7168918 108.451828,21.4893013 107.035178,21.4893013 L104.471971,21.4893013 C104.404767,21.4893013 104.371038,21.4559617 104.371038,21.3887735 L104.371038,17.5593023 C104.371038,17.4921141 104.404767,17.4585201 104.471971,17.4585201 L107.035178,17.4585201 C108.451828,17.4585201 109.278208,18.231184 109.278208,19.4741652 Z M103.038712,27.485591 C102.937522,27.485591 102.870063,27.4184029 102.870063,27.3176206 L102.870063,16.2323359 C102.870063,16.1318082 102.937522,16.0643655 103.038712,16.0643655 L107.119758,16.0643655 C109.328802,16.0643655 110.762062,17.4081289 110.762062,19.4741652 C110.762062,21.5399469 109.328802,22.8834558 107.119758,22.8834558 L104.471971,22.8834558 C104.404767,22.8834558 104.371038,22.9170499 104.371038,22.9842381 L104.371038,27.3176206 C104.371038,27.4184029 104.303323,27.485591 104.202389,27.485591 L103.038712,27.485591 Z M112.493012,16.2323359 C112.493012,16.1318082 112.560472,16.0643655 112.661661,16.0643655 L113.825338,16.0643655 C113.926527,16.0643655 113.993987,16.1318082 113.993987,16.2323359 L113.993987,27.3176206 C113.993987,27.4184029 113.926527,27.485591 113.825338,27.485591 L112.661661,27.485591 C112.560472,27.485591 112.493012,27.4184029 112.493012,27.3176206 L112.493012,16.2323359 Z M119.142376,27.485591 C119.041442,27.485591 118.973727,27.4184029 118.973727,27.3176206 L118.973727,17.5593023 C118.973727,17.4921141 118.939997,17.4585201 118.872793,17.4585201 L115.735925,17.4585201 C115.634991,17.4585201 115.567531,17.3913319 115.567531,17.2905496 L115.567531,16.2323359 C115.567531,16.1318082 115.634991,16.0643655 115.735925,16.0643655 L123.712504,16.0643655 C123.813693,16.0643655 123.881152,16.1318082 123.881152,16.2323359 L123.881152,17.2905496 C123.881152,17.3913319 123.813693,17.4585201 123.712504,17.4585201 L120.575891,17.4585201 C120.508431,17.4585201 120.474701,17.4921141 120.474701,17.5593023 L120.474701,27.3176206 C120.474701,27.4184029 120.407497,27.485591 120.306053,27.485591 L119.142376,27.485591 Z M129.699537,23.4545553 L126.039857,23.4545553 L127.861265,18.2647781 L127.894995,18.2647781 L129.699537,23.4545553 Z M127.13633,16.2323359 C127.169805,16.1318082 127.220655,16.0643655 127.338709,16.0643655 L128.434671,16.0643655 C128.552725,16.0643655 128.620185,16.1318082 128.653914,16.2323359 L132.583177,27.3176206 C132.616906,27.4184029 132.566312,27.485591 132.465123,27.485591 L131.284581,27.485591 C131.166526,27.485591 131.099067,27.4351999 131.065337,27.3176206 L130.188619,24.8316583 L125.551031,24.8316583 L124.674313,27.3176206 C124.623718,27.4351999 124.556003,27.485591 124.454814,27.485591 L123.274528,27.485591 C123.173338,27.485591 123.122488,27.4184029 123.156473,27.3176206 L127.13633,16.2323359 Z M134.200928,16.2323359 C134.200928,16.1318082 134.268643,16.0643655 134.369577,16.0643655 L135.533254,16.0643655 C135.634443,16.0643655 135.701902,16.1318082 135.701902,16.2323359 L135.701902,25.9906542 C135.701902,26.0578424 135.735632,26.0914365 135.803092,26.0914365 L141.266803,26.0914365 C141.367992,26.0914365 141.435196,26.1588792 141.435196,26.2594069 L141.435196,27.3176206 C141.435196,27.4184029 141.367992,27.485591 141.266803,27.485591 L134.369577,27.485591 C134.268643,27.485591 134.200928,27.4184029 134.200928,27.3176206 L134.200928,16.2323359 Z M72.3433464,45.0461356 C72.2421571,45.0461356 72.1749531,44.9789475 72.1749531,44.8781652 L72.1749531,43.8199515 C72.1749531,43.7527633 72.1915624,43.7023722 72.2421571,43.635184 L77.8407873,35.0358617 L77.8407873,35.0190647 L72.545725,35.0190647 C72.4445357,35.0190647 72.3773317,34.9518765 72.3773317,34.8510942 L72.3773317,33.7928805 C72.3773317,33.6923528 72.4445357,33.6251646 72.545725,33.6251646 L79.3923566,33.6251646 C79.4932904,33.6251646 79.5610054,33.6923528 79.5610054,33.7928805 L79.5610054,34.8510942 C79.5610054,34.9182824 79.5441405,34.9686735 79.4932904,35.0358617 L73.8780508,43.635184 L73.8780508,43.6519811 L79.3923566,43.6519811 C79.4932904,43.6519811 79.5610054,43.7194238 79.5610054,43.8199515 L79.5610054,44.8781652 C79.5610054,44.9789475 79.4932904,45.0461356 79.3923566,45.0461356 L72.3433464,45.0461356 Z M81.3221081,41.065491 L81.3221081,33.7928805 C81.3221081,33.6923528 81.3895676,33.6251646 81.4907569,33.6251646 L82.6541783,33.6251646 C82.7556232,33.6251646 82.8230827,33.6923528 82.8230827,33.7928805 L82.8230827,41.048694 C82.8230827,42.8961142 83.8515851,43.8367486 85.3862895,43.8367486 C86.9038734,43.8367486 87.9326313,42.8961142 87.9326313,41.048694 L87.9326313,33.7928805 C87.9326313,33.6923528 87.9998353,33.6251646 88.1012802,33.6251646 L89.2649571,33.6251646 C89.3658909,33.6251646 89.4336059,33.6923528 89.4336059,33.7928805 L89.4336059,41.065491 C89.4336059,43.7527633 87.8989016,45.2309031 85.3862895,45.2309031 C82.8565569,45.2309031 81.3221081,43.7527633 81.3221081,41.065491 Z M91.7377068,33.7928805 C91.7377068,33.6923528 91.8051663,33.6251646 91.9063556,33.6251646 L93.0023175,33.6251646 C93.1374921,33.6251646 93.2218165,33.6755557 93.2724111,33.7928805 L96.6957269,41.4854171 L96.7463216,41.4854171 L100.102178,33.7928805 C100.152517,33.6755557 100.236841,33.6251646 100.37176,33.6251646 L101.467978,33.6251646 C101.569167,33.6251646 101.636627,33.6923528 101.636627,33.7928805 L101.636627,44.8781652 C101.636627,44.9789475 101.569167,45.0461356 101.467978,45.0461356 L100.40549,45.0461356 C100.304556,45.0461356 100.236841,44.9789475 100.236841,44.8781652 L100.236841,36.933673 L100.186502,36.933673 L97.336337,43.2155125 C97.269133,43.3664314 97.1848086,43.417077 97.0327691,43.417077 L96.3581737,43.417077 C96.1897804,43.417077 96.105456,43.3664314 96.037741,43.2155125 L93.1880867,36.933673 L93.1374921,36.933673 L93.1374921,44.8781652 C93.1374921,44.9789475 93.0700325,45.0461356 92.9688432,45.0461356 L91.9063556,45.0461356 C91.8051663,45.0461356 91.7377068,44.9789475 91.7377068,44.8781652 L91.7377068,33.7928805 Z M108.51801,33.7928805 C108.51801,33.6923528 108.58547,33.6251646 108.686404,33.6251646 L109.85008,33.6251646 C109.951525,33.6251646 110.018729,33.6923528 110.018729,33.7928805 L110.018729,38.4790009 C110.018729,38.5461891 110.052459,38.5797832 110.120174,38.5797832 L115.094548,38.5797832 C115.162008,38.5797832 115.195993,38.5461891 115.195993,38.4790009 L115.195993,33.7928805 C115.195993,33.6923528 115.263453,33.6251646 115.364386,33.6251646 L116.528063,33.6251646 C116.629253,33.6251646 116.696712,33.6923528 116.696712,33.7928805 L116.696712,44.8781652 C116.696712,44.9789475 116.629253,45.0461356 116.528063,45.0461356 L115.364386,45.0461356 C115.263453,45.0461356 115.195993,44.9789475 115.195993,44.8781652 L115.195993,40.07472 C115.195993,40.0072773 115.162008,39.9739377 115.094548,39.9739377 L110.120174,39.9739377 C110.052459,39.9739377 110.018729,40.0072773 110.018729,40.07472 L110.018729,44.8781652 C110.018729,44.9789475 109.951525,45.0461356 109.85008,45.0461356 L108.686404,45.0461356 C108.58547,45.0461356 108.51801,44.9789475 108.51801,44.8781652 L108.51801,33.7928805 Z M119.073639,33.7928805 C119.073639,33.6923528 119.141098,33.6251646 119.242287,33.6251646 L126.139514,33.6251646 C126.240703,33.6251646 126.307907,33.6923528 126.307907,33.7928805 L126.307907,34.8510942 C126.307907,34.9518765 126.240703,35.0190647 126.139514,35.0190647 L120.675547,35.0190647 C120.608343,35.0190647 120.574613,35.0526587 120.574613,35.1198469 L120.574613,38.4790009 C120.574613,38.5461891 120.608343,38.5797832 120.675547,38.5797832 L125.313134,38.5797832 C125.414324,38.5797832 125.481783,38.6469714 125.481783,38.7477536 L125.481783,39.8057128 C125.481783,39.9064951 125.414324,39.9739377 125.313134,39.9739377 L120.675547,39.9739377 C120.608343,39.9739377 120.574613,40.0072773 120.574613,40.07472 L120.574613,43.5511988 C120.574613,43.618387 120.608343,43.6519811 120.675547,43.6519811 L126.139514,43.6519811 C126.240703,43.6519811 126.307907,43.7194238 126.307907,43.8199515 L126.307907,44.8781652 C126.307907,44.9789475 126.240703,45.0461356 126.139514,45.0461356 L119.242287,45.0461356 C119.141098,45.0461356 119.073639,44.9789475 119.073639,44.8781652 L119.073639,33.7928805 Z M128.754082,33.7928805 C128.754082,33.6923528 128.821286,33.6251646 128.922475,33.6251646 L130.085896,33.6251646 C130.187341,33.6251646 130.254801,33.6923528 130.254801,33.7928805 L130.254801,44.8781652 C130.254801,44.9789475 130.187341,45.0461356 130.085896,45.0461356 L128.922475,45.0461356 C128.821286,45.0461356 128.754082,44.9789475 128.754082,44.8781652 L128.754082,33.7928805 Z M133.239629,33.7928805 C133.239629,33.6923528 133.307345,33.6251646 133.408278,33.6251646 L134.571955,33.6251646 C134.6734,33.6251646 134.740604,33.6923528 134.740604,33.7928805 L134.740604,43.5511988 C134.740604,43.618387 134.774334,43.6519811 134.841793,43.6519811 L140.30576,43.6519811 C140.406694,43.6519811 140.474153,43.7194238 140.474153,43.8199515 L140.474153,44.8781652 C140.474153,44.9789475 140.406694,45.0461356 140.30576,45.0461356 L133.408278,45.0461356 C133.307345,45.0461356 133.239629,44.9789475 133.239629,44.8781652 L133.239629,33.7928805 Z M142.090371,33.7928805 C142.090371,33.6923528 142.158086,33.6251646 142.25902,33.6251646 L143.422697,33.6251646 C143.523631,33.6251646 143.591346,33.6923528 143.591346,33.7928805 L143.591346,44.8781652 C143.591346,44.9789475 143.523631,45.0461356 143.422697,45.0461356 L142.25902,45.0461356 C142.158086,45.0461356 142.090371,44.9789475 142.090371,44.8781652 L142.090371,33.7928805 Z M145.598267,39.3356501 C145.598267,37.4543813 145.699201,36.7657026 145.90158,36.1108724 C146.474986,34.347183 147.89138,33.4401426 149.830842,33.4401426 C151.837507,33.4401426 153.068644,34.4479652 153.64205,35.7077434 C153.692389,35.8085257 153.67578,35.8925109 153.591455,35.942902 L152.579562,36.4300162 C152.478373,36.4804074 152.394049,36.4465588 152.343454,36.3457765 C151.786913,35.3214114 151.045113,34.8342972 149.830842,34.8342972 C148.532246,34.8342972 147.706122,35.4389907 147.351959,36.5307985 C147.200176,36.9504701 147.115851,37.5887577 147.115851,39.3356501 C147.115851,41.0822881 147.200176,41.7205757 147.351959,42.1405017 C147.706122,43.232055 148.532246,43.8367486 149.830842,43.8367486 C150.994519,43.8367486 151.938697,43.2656491 152.292859,42.1906384 C152.410913,41.8045609 152.512103,41.2502585 152.512103,40.3936093 C152.512103,40.3264211 152.478373,40.2928271 152.410913,40.2928271 L150.185004,40.2928271 C150.083815,40.2928271 150.016356,40.2256389 150.016356,40.1248566 L150.016356,39.1506282 C150.016356,39.0498459 150.083815,38.9829122 150.185004,38.9829122 L153.844429,38.9829122 C153.945618,38.9829122 154.012822,39.0498459 154.012822,39.1506282 L154.012822,40.0072773 C154.012822,41.0318969 153.894768,41.9725313 153.726119,42.5268337 C153.169578,44.2564201 151.736318,45.2309031 149.830842,45.2309031 C147.89138,45.2309031 146.474986,44.3241173 145.90158,42.5601733 C145.699201,41.9053432 145.598267,41.2166644 145.598267,39.3356501 Z M155.959694,33.7928805 C155.959694,33.6923528 156.027153,33.6251646 156.128087,33.6251646 L163.025569,33.6251646 C163.126503,33.6251646 163.194218,33.6923528 163.194218,33.7928805 L163.194218,34.8510942 C163.194218,34.9518765 163.126503,35.0190647 163.025569,35.0190647 L157.561858,35.0190647 C157.494143,35.0190647 157.460413,35.0526587 157.460413,35.1198469 L157.460413,38.4790009 C157.460413,38.5461891 157.494143,38.5797832 157.561858,38.5797832 L162.19919,38.5797832 C162.300379,38.5797832 162.367583,38.6469714 162.367583,38.7477536 L162.367583,39.8057128 C162.367583,39.9064951 162.300379,39.9739377 162.19919,39.9739377 L157.561858,39.9739377 C157.494143,39.9739377 157.460413,40.0072773 157.460413,40.07472 L157.460413,43.5511988 C157.460413,43.618387 157.494143,43.6519811 157.561858,43.6519811 L163.025569,43.6519811 C163.126503,43.6519811 163.194218,43.7194238 163.194218,43.8199515 L163.194218,44.8781652 C163.194218,44.9789475 163.126503,45.0461356 163.025569,45.0461356 L156.128087,45.0461356 C156.027153,45.0461356 155.959694,44.9789475 155.959694,44.8781652 L155.959694,33.7928805 Z M165.002338,33.7928805 C165.002338,33.6923528 165.070053,33.6251646 165.170986,33.6251646 L166.250339,33.6251646 C166.385258,33.6251646 166.469582,33.6585042 166.537042,33.7928805 L171.730915,42.3586088 L171.798375,42.3586088 L171.798375,33.7928805 C171.798375,33.6923528 171.865834,33.6251646 171.967023,33.6251646 L173.029511,33.6251646 C173.1307,33.6251646 173.197904,33.6923528 173.197904,33.7928805 L173.197904,44.8781652 C173.197904,44.9789475 173.1307,45.0461356 173.029511,45.0461356 L171.950159,45.0461356 C171.83236,45.0461356 171.730915,45.012287 171.663455,44.8781652 L166.452718,36.3457765 L166.402123,36.3457765 L166.402123,44.8781652 C166.402123,44.9789475 166.334663,45.0461356 166.233474,45.0461356 L165.170986,45.0461356 C165.070053,45.0461356 165.002338,44.9789475 165.002338,44.8781652 L165.002338,33.7928805 Z M179.674531,39.3356501 C179.674531,37.4543813 179.77572,36.7657026 179.978099,36.1108724 C180.551505,34.347183 181.968155,33.4401426 183.907105,33.4401426 C185.914026,33.4401426 187.144907,34.4479652 187.718313,35.7077434 C187.769164,35.8085257 187.752043,35.8925109 187.667719,35.942902 L186.656081,36.4300162 C186.554892,36.4804074 186.470568,36.4465588 186.419973,36.3457765 C185.863432,35.3214114 185.121377,34.8342972 183.907105,34.8342972 C182.608765,34.8342972 181.782641,35.4389907 181.428223,36.5307985 C181.276439,36.9504701 181.192115,37.5887577 181.192115,39.3356501 C181.192115,41.0822881 181.276439,41.7205757 181.428223,42.1405017 C181.782641,43.232055 182.608765,43.8367486 183.907105,43.8367486 C185.070782,43.8367486 186.015216,43.2656491 186.369378,42.1906384 C186.487432,41.8045609 186.588622,41.2502585 186.588622,40.3936093 C186.588622,40.3264211 186.554892,40.2928271 186.487432,40.2928271 L184.261523,40.2928271 C184.160334,40.2928271 184.092875,40.2256389 184.092875,40.1248566 L184.092875,39.1506282 C184.092875,39.0498459 184.160334,38.9829122 184.261523,38.9829122 L187.920692,38.9829122 C188.021881,38.9829122 188.089596,39.0498459 188.089596,39.1506282 L188.089596,40.0072773 C188.089596,41.0318969 187.971542,41.9725313 187.802893,42.5268337 C187.246352,44.2564201 185.812837,45.2309031 183.907105,45.2309031 C181.968155,45.2309031 180.551505,44.3241173 179.978099,42.5601733 C179.77572,41.9053432 179.674531,41.2166644 179.674531,39.3356501 Z M190.036213,33.7928805 C190.036213,33.6923528 190.103417,33.6251646 190.204862,33.6251646 L197.101832,33.6251646 C197.203277,33.6251646 197.270481,33.6923528 197.270481,33.7928805 L197.270481,34.8510942 C197.270481,34.9518765 197.203277,35.0190647 197.101832,35.0190647 L191.638121,35.0190647 C191.570917,35.0190647 191.536932,35.0526587 191.536932,35.1198469 L191.536932,38.4790009 C191.536932,38.5461891 191.570917,38.5797832 191.638121,38.5797832 L196.275709,38.5797832 C196.376642,38.5797832 196.444357,38.6469714 196.444357,38.7477536 L196.444357,39.8057128 C196.444357,39.9064951 196.376642,39.9739377 196.275709,39.9739377 L191.638121,39.9739377 C191.570917,39.9739377 191.536932,40.0072773 191.536932,40.07472 L191.536932,43.5511988 C191.536932,43.618387 191.570917,43.6519811 191.638121,43.6519811 L197.101832,43.6519811 C197.203277,43.6519811 197.270481,43.7194238 197.270481,43.8199515 L197.270481,44.8781652 C197.270481,44.9789475 197.203277,45.0461356 197.101832,45.0461356 L190.204862,45.0461356 C190.103417,45.0461356 190.036213,44.9789475 190.036213,44.8781652 L190.036213,33.7928805 Z M199.078857,33.7928805 C199.078857,33.6923528 199.146316,33.6251646 199.247505,33.6251646 L200.410927,33.6251646 C200.512372,33.6251646 200.579576,33.6923528 200.579576,33.7928805 L200.579576,44.8781652 C200.579576,44.9789475 200.512372,45.0461356 200.410927,45.0461356 L199.247505,45.0461356 C199.146316,45.0461356 199.078857,44.9789475 199.078857,44.8781652 L199.078857,33.7928805 Z M202.412993,43.8031545 C202.345533,43.7359663 202.328669,43.635184 202.396128,43.5511988 L203.137927,42.6777526 C203.205642,42.5937674 203.289967,42.5937674 203.374291,42.6609556 C204.116091,43.2491066 205.262903,43.8367486 206.578108,43.8367486 C208.163407,43.8367486 209.107841,43.0475421 209.107841,41.8885461 C209.107841,40.9143176 208.551299,40.259233 206.713027,40.0243289 L206.139621,39.9403437 C203.913712,39.6377424 202.767156,38.5797832 202.767156,36.7824996 C202.767156,34.750312 204.234145,33.4401426 206.510649,33.4401426 C207.859839,33.4401426 209.158435,33.8771203 210.001679,34.4983563 C210.086004,34.5655445 210.102613,34.6495297 210.035154,34.7335149 L209.461748,35.6570978 C209.394544,35.7413375 209.309964,35.7413375 209.225639,35.6909464 C208.298326,35.1198469 207.438217,34.8342972 206.460054,34.8342972 C205.060524,34.8342972 204.284739,35.5901641 204.284739,36.6817174 C204.284739,37.6391488 204.925605,38.2774364 206.696162,38.512595 L207.252959,38.5965802 C209.495477,38.898927 210.625425,39.9232921 210.625425,41.7875094 C210.625425,43.7863574 209.20903,45.2309031 206.443445,45.2309031 C204.824416,45.2309031 203.256237,44.5755639 202.412993,43.8031545 Z M215.262501,45.0461356 C215.16029,45.0461356 215.093852,44.9789475 215.093852,44.8781652 L215.093852,35.1198469 C215.093852,35.0526587 215.060633,35.0190647 214.991641,35.0190647 L211.855283,35.0190647 C211.75435,35.0190647 211.686635,34.9518765 211.686635,34.8510942 L211.686635,33.7928805 C211.686635,33.6923528 211.75435,33.6251646 211.855283,33.6251646 L219.831351,33.6251646 C219.933563,33.6251646 220,33.6923528 220,33.7928805 L220,34.8510942 C220,34.9518765 219.933563,35.0190647 219.831351,35.0190647 L216.696016,35.0190647 C216.627023,35.0190647 216.593805,35.0526587 216.593805,35.1198469 L216.593805,44.8781652 C216.593805,44.9789475 216.527367,45.0461356 216.425156,45.0461356 L215.262501,45.0461356 Z" id="HOSPITAL"></path>
        </g>
    </g>
</svg>