<?xml version="1.0" encoding="UTF-8"?>
<svg width="263px" height="62px" viewBox="0 0 263 62" version="1.1" xmlns="http://www.w3.org/2000/svg" xmlns:xlink="http://www.w3.org/1999/xlink">
    <!-- Generator: Sketch 46.2 (44496) - http://www.bohemiancoding.com/sketch -->
    <title>logo_</title>
    <desc>Created with Sketch.</desc>
    <defs></defs>
    <g id="99_Logos+Farben" stroke="none" stroke-width="1" fill="none" fill-rule="evenodd">
        <g id="logo_" fill="#0076BC">
            <path d="M50.3931046,15.1566452 L63.184663,15.1566452 L43.3157054,44.0765077 C38.8929194,50.295625 32.0033653,48.3503216 30.6113785,43.5881356 L26.1506766,28.1541885 L13.7918062,46.8425441 L1,46.8425441 L20.8689577,17.9239217 C25.2919914,11.7038123 32.1815456,13.6501078 33.5735324,18.4120457 L37.7698138,34.1833144 L50.3931046,15.1566452 Z M79.9893663,16.6078717 C79.9893663,16.5096517 80.0547899,16.4441716 80.1529254,16.4441716 L81.2814829,16.4441716 C81.3796184,16.4441716 81.445042,16.5096517 81.445042,16.6078717 L81.445042,22.4023608 L86.1714035,16.5915017 C86.2531831,16.4769116 86.3186067,16.4441716 86.433098,16.4441716 L87.7742824,16.4441716 C87.87217,16.4441716 87.9214856,16.5423917 87.8394582,16.6406118 L84.3725016,20.8147174 L88.1829323,27.3947191 C88.2483559,27.4929391 88.199536,27.5747892 88.0850447,27.5747892 L86.7765721,27.5747892 C86.6620807,27.5747892 86.613013,27.5420492 86.5475894,27.4274591 L83.423859,21.9440003 L81.445042,24.3337744 L81.445042,27.4113371 C81.445042,27.5093092 81.3796184,27.5747892 81.2814829,27.5747892 L80.1529254,27.5747892 C80.0547899,27.5747892 79.9893663,27.5093092 79.9893663,27.4113371 L79.9893663,16.6078717 Z M96.2793541,19.6524464 C96.2793541,20.8147174 95.5106265,21.50201 94.2187576,21.50201 L91.6184162,21.50201 C91.5529926,21.50201 91.5202808,21.469518 91.5202808,21.4037899 L91.5202808,17.9011029 C91.5202808,17.8356228 91.5529926,17.8026348 91.6184162,17.8026348 L94.2187576,17.8026348 C95.5106265,17.8026348 96.2793541,18.4904234 96.2793541,19.6524464 Z M96.5083368,27.5747892 C96.3938454,27.5747892 96.3447777,27.5259272 96.29571,27.4113371 L94.0715545,22.8607212 L91.6184162,22.8607212 C91.5529926,22.8607212 91.5202808,22.8934612 91.5202808,22.9589412 L91.5202808,27.4113371 C91.5202808,27.5093092 91.4546093,27.5747892 91.3567217,27.5747892 L90.2281641,27.5747892 C90.1300287,27.5747892 90.064605,27.5093092 90.064605,27.4113371 L90.064605,16.6078717 C90.064605,16.5096517 90.1300287,16.4441716 90.2281641,16.4441716 L94.2514694,16.4441716 C96.3284218,16.4441716 97.734782,17.7210327 97.734782,19.6524464 C97.734782,21.1584877 96.8845227,22.2550306 95.5433383,22.680651 L97.914697,27.378349 C97.9801206,27.4765691 97.9310529,27.5747892 97.8165615,27.5747892 L96.5083368,27.5747892 Z M105.520442,23.6464818 L101.971458,23.6464818 L103.737648,18.5883954 L103.77036,18.5883954 L105.520442,23.6464818 Z M103.034344,16.6078717 C103.067303,16.5096517 103.116123,16.4441716 103.230615,16.4441716 L104.293749,16.4441716 C104.40824,16.4441716 104.473664,16.5096517 104.506375,16.6078717 L108.316806,27.4113371 C108.349766,27.5093092 108.300698,27.5747892 108.202315,27.5747892 L107.057649,27.5747892 C106.943158,27.5747892 106.877734,27.5259272 106.845022,27.4113371 L105.994515,24.988575 L101.497136,24.988575 L100.646629,27.4113371 C100.597561,27.5259272 100.532138,27.5747892 100.43425,27.5747892 L99.2893366,27.5747892 C99.1912012,27.5747892 99.1421335,27.5093092 99.1748453,27.4113371 L103.034344,16.6078717 Z M110.083987,16.6078717 C110.083987,16.5096517 110.149411,16.4441716 110.247547,16.4441716 L111.294077,16.4441716 C111.424924,16.4441716 111.506704,16.4769116 111.572375,16.6078717 L116.609499,24.955835 L116.674922,24.955835 L116.674922,16.6078717 C116.674922,16.5096517 116.740346,16.4441716 116.838481,16.4441716 L117.868656,16.4441716 C117.966791,16.4441716 118.032215,16.5096517 118.032215,16.6078717 L118.032215,27.4113371 C118.032215,27.5093092 117.966791,27.5747892 117.868656,27.5747892 L116.822126,27.5747892 C116.707634,27.5747892 116.609499,27.5420492 116.544075,27.4113371 L111.490348,19.0958659 L111.441528,19.0958659 L111.441528,27.4113371 C111.441528,27.5093092 111.376104,27.5747892 111.277969,27.5747892 L110.247547,27.5747892 C110.149411,27.5747892 110.083987,27.5093092 110.083987,27.4113371 L110.083987,16.6078717 Z M120.780503,16.6078717 C120.780503,16.5096517 120.845927,16.4441716 120.944062,16.4441716 L122.07262,16.4441716 C122.170755,16.4441716 122.236179,16.5096517 122.236179,16.6078717 L122.236179,22.4023608 L126.962788,16.5915017 C127.044567,16.4769116 127.109743,16.4441716 127.224235,16.4441716 L128.565419,16.4441716 C128.663554,16.4441716 128.712622,16.5423917 128.630843,16.6406118 L125.163638,20.8147174 L128.974317,27.3947191 C129.039493,27.4929391 128.990673,27.5747892 128.876181,27.5747892 L127.567709,27.5747892 C127.453217,27.5747892 127.40415,27.5420492 127.338726,27.4274591 L124.215243,21.9440003 L122.236179,24.3337744 L122.236179,27.4113371 C122.236179,27.5093092 122.170755,27.5747892 122.07262,27.5747892 L120.944062,27.5747892 C120.845927,27.5747892 120.780503,27.5093092 120.780503,27.4113371 L120.780503,16.6078717 Z M130.855989,16.6078717 C130.855989,16.5096517 130.921165,16.4441716 131.019301,16.4441716 L137.708371,16.4441716 C137.806507,16.4441716 137.87193,16.5096517 137.87193,16.6078717 L137.87193,17.6391826 C137.87193,17.7374027 137.806507,17.8026348 137.708371,17.8026348 L132.409553,17.8026348 C132.344129,17.8026348 132.311417,17.8356228 132.311417,17.9011029 L132.311417,21.1748577 C132.311417,21.2403378 132.344129,21.2730778 132.409553,21.2730778 L136.906932,21.2730778 C137.005067,21.2730778 137.070491,21.3383098 137.070491,21.4367779 L137.070491,22.4678408 C137.070491,22.5660609 137.005067,22.631541 136.906932,22.631541 L132.409553,22.631541 C132.344129,22.631541 132.311417,22.664281 132.311417,22.729761 L132.311417,26.118106 C132.311417,26.183338 132.344129,26.2163261 132.409553,26.2163261 L137.708371,26.2163261 C137.806507,26.2163261 137.87193,26.2818061 137.87193,26.3797782 L137.87193,27.4113371 C137.87193,27.5093092 137.806507,27.5747892 137.708371,27.5747892 L131.019301,27.5747892 C130.921165,27.5747892 130.855989,27.5093092 130.855989,27.4113371 L130.855989,16.6078717 Z M140.064117,16.6078717 C140.064117,16.5096517 140.129293,16.4441716 140.227429,16.4441716 L141.274207,16.4441716 C141.405054,16.4441716 141.486833,16.4769116 141.552257,16.6078717 L146.589381,24.955835 L146.654804,24.955835 L146.654804,16.6078717 C146.654804,16.5096517 146.720228,16.4441716 146.818363,16.4441716 L147.848786,16.4441716 C147.946921,16.4441716 148.012345,16.5096517 148.012345,16.6078717 L148.012345,27.4113371 C148.012345,27.5093092 147.946921,27.5747892 147.848786,27.5747892 L146.802008,27.5747892 C146.687516,27.5747892 146.589381,27.5420492 146.523957,27.4113371 L141.470478,19.0958659 L141.42141,19.0958659 L141.42141,27.4113371 C141.42141,27.5093092 141.355986,27.5747892 141.257851,27.5747892 L140.227429,27.5747892 C140.129293,27.5747892 140.064117,27.5093092 140.064117,27.4113371 L140.064117,16.6078717 Z M150.760633,16.6078717 C150.760633,16.5096517 150.826056,16.4441716 150.924192,16.4441716 L152.052749,16.4441716 C152.150637,16.4441716 152.216061,16.5096517 152.216061,16.6078717 L152.216061,21.1748577 C152.216061,21.2403378 152.24902,21.2730778 152.314196,21.2730778 L157.138941,21.2730778 C157.204364,21.2730778 157.237076,21.2403378 157.237076,21.1748577 L157.237076,16.6078717 C157.237076,16.5096517 157.302252,16.4441716 157.400635,16.4441716 L158.528945,16.4441716 C158.627081,16.4441716 158.692504,16.5096517 158.692504,16.6078717 L158.692504,27.4113371 C158.692504,27.5093092 158.627081,27.5747892 158.528945,27.5747892 L157.400635,27.5747892 C157.302252,27.5747892 157.237076,27.5093092 157.237076,27.4113371 L157.237076,22.729761 C157.237076,22.664281 157.204364,22.631541 157.138941,22.631541 L152.314196,22.631541 C152.24902,22.631541 152.216061,22.664281 152.216061,22.729761 L152.216061,27.4113371 C152.216061,27.5093092 152.150637,27.5747892 152.052749,27.5747892 L150.924192,27.5747892 C150.826056,27.5747892 150.760633,27.5093092 150.760633,27.4113371 L150.760633,16.6078717 Z M166.805282,23.6464818 L163.256546,23.6464818 L165.022736,18.5883954 L165.0552,18.5883954 L166.805282,23.6464818 Z M164.319432,16.6078717 C164.352144,16.5096517 164.401211,16.4441716 164.515703,16.4441716 L165.578837,16.4441716 C165.693328,16.4441716 165.758504,16.5096517 165.791216,16.6078717 L169.601894,27.4113371 C169.634606,27.5093092 169.585538,27.5747892 169.487403,27.5747892 L168.342737,27.5747892 C168.228246,27.5747892 168.162822,27.5259272 168.13011,27.4113371 L167.279603,24.988575 L162.782224,24.988575 L161.931717,27.4113371 C161.88265,27.5259272 161.817226,27.5747892 161.71909,27.5747892 L160.574177,27.5747892 C160.476042,27.5747892 160.427222,27.5093092 160.459933,27.4113371 L164.319432,16.6078717 Z M171.041957,23.6955919 L171.041957,16.6078717 C171.041957,16.5096517 171.107133,16.4441716 171.205517,16.4441716 L172.333826,16.4441716 C172.431962,16.4441716 172.497385,16.5096517 172.497385,16.6078717 L172.497385,23.6792219 C172.497385,25.4796754 173.495096,26.3963962 174.983235,26.3963962 C176.455019,26.3963962 177.45273,25.4796754 177.45273,23.6792219 L177.45273,16.6078717 C177.45273,16.5096517 177.518153,16.4441716 177.616289,16.4441716 L178.744846,16.4441716 C178.842982,16.4441716 178.908405,16.5096517 178.908405,16.6078717 L178.908405,23.6955919 C178.908405,26.3145461 177.420018,27.7548594 174.983235,27.7548594 C172.530097,27.7548594 171.041957,26.3145461 171.041957,23.6955919 Z M181.035169,26.3636562 C180.969745,26.2981761 180.953389,26.199956 181.018813,26.118106 L181.738473,25.2668652 C181.803897,25.1850152 181.885676,25.1850152 181.967456,25.2504952 C182.687116,25.8234457 183.799069,26.3963962 185.07483,26.3963962 C186.612038,26.3963962 187.527968,25.6270055 187.527968,24.4977226 C187.527968,23.5480137 186.988223,22.9098312 185.205677,22.680651 L184.649577,22.5988009 C182.490845,22.3041407 181.378643,21.2730778 181.378643,19.5214863 C181.378643,17.5409626 182.801607,16.2641014 185.009406,16.2641014 C186.317631,16.2641014 187.577036,16.6897218 188.394831,17.2954123 C188.476611,17.3608924 188.492967,17.4427425 188.427543,17.5245925 L187.871442,18.4246953 C187.806019,18.5065454 187.724239,18.5065454 187.64246,18.4576834 C186.742885,17.9011029 185.908981,17.6228126 184.960339,17.6228126 C183.602798,17.6228126 182.850675,18.3594633 182.850675,19.4232662 C182.850675,20.356357 183.471951,20.9784175 185.189321,21.2073497 L185.729066,21.2894478 C187.904154,21.58386 189,22.5824309 189,24.3992545 C189,26.3472862 187.626104,27.7548594 184.943983,27.7548594 C183.373816,27.7548594 181.852964,27.1164288 181.035169,26.3636562 Z M79.9893663,33.7219776 C79.9893663,33.6237575 80.0547899,33.5582775 80.1529254,33.5582775 L81.1997034,33.5582775 C81.3305507,33.5582775 81.4123302,33.5910175 81.4777538,33.7219776 L86.5148776,42.0699408 L86.5803012,42.0699408 L86.5803012,33.7219776 C86.5803012,33.6237575 86.6457248,33.5582775 86.7438603,33.5582775 L87.7742824,33.5582775 C87.87217,33.5582775 87.9375937,33.6237575 87.9375937,33.7219776 L87.9375937,44.525443 C87.9375937,44.623415 87.87217,44.6888951 87.7742824,44.6888951 L86.7275044,44.6888951 C86.613013,44.6888951 86.5148776,44.6561551 86.4494539,44.525443 L81.3959743,36.2099718 L81.3469066,36.2099718 L81.3469066,44.525443 C81.3469066,44.623415 81.2814829,44.6888951 81.1833475,44.6888951 L80.1529254,44.6888951 C80.0547899,44.6888951 79.9893663,44.623415 79.9893663,44.525443 L79.9893663,33.7219776 Z M96.7373195,41.8571306 C96.3938454,42.9211816 95.6087619,43.5105021 94.365713,43.5105021 C93.1392678,43.5105021 92.3541842,42.9211816 92.0107102,41.8571306 C91.8798629,41.4478803 91.7653716,40.7278477 91.7653716,39.1235863 C91.7653716,37.5195729 91.8798629,36.7992923 92.0107102,36.3900419 C92.3541842,35.326239 93.1392678,34.7369185 94.365713,34.7369185 C95.6087619,34.7369185 96.3938454,35.326239 96.7373195,36.3900419 C96.8681667,36.7992923 96.9826581,37.5195729 96.9826581,39.1235863 C96.9826581,40.7278477 96.8681667,41.4478803 96.7373195,41.8571306 Z M90.5879941,42.266381 C90.3753673,41.6279504 90.2935877,40.9570279 90.2935877,39.1235863 C90.2935877,37.2903927 90.3753673,36.6192221 90.5879941,35.9807916 C91.1604508,34.2621881 92.5013874,33.3782073 94.365713,33.3782073 C96.2466423,33.3782073 97.5875788,34.2621881 98.1600356,35.9807916 C98.3726624,36.6192221 98.4544419,37.2903927 98.4544419,39.1235863 C98.4544419,40.9570279 98.3726624,41.6279504 98.1600356,42.266381 C97.5875788,43.9852325 96.2466423,44.8689652 94.365713,44.8689652 C92.5013874,44.8689652 91.1604508,43.9852325 90.5879941,42.266381 Z M107.024689,36.7665523 C107.024689,37.9288233 106.25621,38.6161158 104.964341,38.6161158 L102.363752,38.6161158 C102.298328,38.6161158 102.265616,38.5836238 102.265616,38.5178958 L102.265616,35.0152088 C102.265616,34.9497287 102.298328,34.9167406 102.363752,34.9167406 L104.964341,34.9167406 C106.25621,34.9167406 107.024689,35.6045293 107.024689,36.7665523 Z M107.253672,44.6888951 C107.139181,44.6888951 107.090361,44.6400331 107.041293,44.525443 L104.81689,39.974827 L102.363752,39.974827 C102.298328,39.974827 102.265616,40.0075671 102.265616,40.0730471 L102.265616,44.525443 C102.265616,44.623415 102.20044,44.6888951 102.102057,44.6888951 L100.973499,44.6888951 C100.875612,44.6888951 100.810188,44.623415 100.810188,44.525443 L100.810188,33.7219776 C100.810188,33.6237575 100.875612,33.5582775 100.973499,33.5582775 L104.996805,33.5582775 C107.074005,33.5582775 108.480365,34.8351386 108.480365,36.7665523 C108.480365,38.2725936 107.630106,39.3691365 106.288921,39.7947569 L108.66028,44.4924549 C108.725704,44.590675 108.676636,44.6888951 108.562145,44.6888951 L107.253672,44.6888951 Z M112.455346,43.3304319 C112.389923,43.3304319 112.357211,43.2974439 112.357211,43.2322118 L112.357211,35.0152088 C112.357211,34.9497287 112.389923,34.9167406 112.455346,34.9167406 L114.499587,34.9167406 C115.840771,34.9167406 116.674675,35.3589791 117.034505,36.439152 C117.181708,36.8484023 117.263487,37.3886128 117.263487,39.1235863 C117.263487,40.8585598 117.181708,41.3987702 117.034505,41.8082686 C116.674675,42.8884415 115.840771,43.3304319 114.499587,43.3304319 L112.455346,43.3304319 Z M110.901535,33.7219776 C110.901535,33.6237575 110.966959,33.5582775 111.065094,33.5582775 L114.810349,33.5582775 C116.69103,33.5582775 117.934079,34.3604082 118.441113,35.9316815 C118.637383,36.5373721 118.735271,37.1430626 118.735271,39.1235863 C118.735271,41.104358 118.637383,41.7098005 118.441113,42.315491 C117.934079,43.8867644 116.69103,44.6888951 114.810349,44.6888951 L111.065094,44.6888951 C110.966959,44.6888951 110.901535,44.623415 110.901535,44.525443 L110.901535,33.7219776 Z M128.843222,44.6888951 C128.745086,44.6888951 128.696018,44.623415 128.663307,44.525443 L126.291948,36.2263418 L126.259236,36.2263418 L123.904233,44.525443 C123.871274,44.623415 123.80585,44.6888951 123.707962,44.6888951 L122.808388,44.6888951 C122.710252,44.6888951 122.644828,44.623415 122.628473,44.525443 L119.946352,33.7219776 C119.91364,33.6237575 119.962708,33.5582775 120.077199,33.5582775 L121.156689,33.5582775 C121.27118,33.5582775 121.336356,33.6073875 121.352712,33.7219776 L123.331777,41.9880908 L123.364488,41.9880908 L125.670423,33.7219776 C125.703135,33.6237575 125.768559,33.5582775 125.866694,33.5582775 L126.700846,33.5582775 C126.815337,33.5582775 126.864405,33.6237575 126.896869,33.7219776 L129.252119,41.9880908 L129.284831,41.9880908 L131.21458,33.7219776 C131.247292,33.6073875 131.312716,33.5582775 131.427207,33.5582775 L132.490093,33.5582775 C132.604585,33.5582775 132.637296,33.6237575 132.621188,33.7219776 L129.93882,44.525443 C129.922464,44.623415 129.840932,44.6888951 129.742549,44.6888951 L128.843222,44.6888951 Z M134.38837,33.7219776 C134.38837,33.6237575 134.454041,33.5582775 134.552177,33.5582775 L141.240999,33.5582775 C141.339135,33.5582775 141.404558,33.6237575 141.404558,33.7219776 L141.404558,34.7532885 C141.404558,34.8515086 141.339135,34.9167406 141.240999,34.9167406 L135.942181,34.9167406 C135.876757,34.9167406 135.844045,34.9497287 135.844045,35.0152088 L135.844045,38.2889636 C135.844045,38.3544436 135.876757,38.3871837 135.942181,38.3871837 L140.43956,38.3871837 C140.537695,38.3871837 140.603367,38.4524157 140.603367,38.5508838 L140.603367,39.5819467 C140.603367,39.6801668 140.537695,39.7456468 140.43956,39.7456468 L135.942181,39.7456468 C135.876757,39.7456468 135.844045,39.7783869 135.844045,39.8438669 L135.844045,43.2322118 C135.844045,43.2974439 135.876757,43.3304319 135.942181,43.3304319 L141.240999,43.3304319 C141.339135,43.3304319 141.404558,43.395912 141.404558,43.493884 L141.404558,44.525443 C141.404558,44.623415 141.339135,44.6888951 141.240999,44.6888951 L134.552177,44.6888951 C134.454041,44.6888951 134.38837,44.623415 134.38837,44.525443 L134.38837,33.7219776 Z M143.057,43.4777621 C142.991577,43.412282 142.975221,43.3140619 143.040645,43.2322118 L143.760304,42.3809711 C143.82548,42.299121 143.907508,42.299121 143.989287,42.3646011 C144.708699,42.9375516 145.820901,43.5105021 147.096662,43.5105021 C148.633869,43.5105021 149.5498,42.7411114 149.5498,41.6118285 C149.5498,40.6621196 149.010055,40.0239371 147.227509,39.7947569 L146.671408,39.7129068 C144.512428,39.4182465 143.400475,38.3871837 143.400475,36.6355921 C143.400475,34.6550684 144.823191,33.3782073 147.031238,33.3782073 C148.339463,33.3782073 149.59862,33.8038277 150.416415,34.4095182 C150.498195,34.4749983 150.514551,34.5568484 150.449127,34.6386984 L149.893274,35.5388012 C149.827603,35.6206513 149.746071,35.6206513 149.664291,35.5717892 C148.764716,35.0152088 147.930565,34.7369185 146.98217,34.7369185 C145.62463,34.7369185 144.872258,35.4735692 144.872258,36.5373721 C144.872258,37.4704629 145.493783,38.0925234 147.211153,38.3214556 L147.75065,38.4035537 C149.925986,38.6979659 151.021584,39.6965368 151.021584,41.5133603 C151.021584,43.461392 149.647935,44.8689652 146.965567,44.8689652 C145.395647,44.8689652 143.874796,44.2305347 143.057,43.4777621 Z M155.519706,44.6888951 C155.421571,44.6888951 155.356395,44.623415 155.356395,44.525443 L155.356395,35.0152088 C155.356395,34.9497287 155.323435,34.9167406 155.258012,34.9167406 L152.216308,34.9167406 C152.117925,34.9167406 152.052749,34.8515086 152.052749,34.7532885 L152.052749,33.7219776 C152.052749,33.6237575 152.117925,33.5582775 152.216308,33.5582775 L159.951909,33.5582775 C160.050044,33.5582775 160.115468,33.6237575 160.115468,33.7219776 L160.115468,34.7532885 C160.115468,34.8515086 160.050044,34.9167406 159.951909,34.9167406 L156.909958,34.9167406 C156.844535,34.9167406 156.811823,34.9497287 156.811823,35.0152088 L156.811823,44.525443 C156.811823,44.623415 156.746399,44.6888951 156.648264,44.6888951 L155.519706,44.6888951 Z" id="KRANKENHAUS-NW"></path>
        </g>
    </g>
</svg>